<svg xmlns="http://www.w3.org/2000/svg" xmlns:xlink="http://www.w3.org/1999/xlink" width="100" zoomAndPan="magnify" viewBox="0 0 375 374.999991" height="100" preserveAspectRatio="xMidYMid meet" version="1.0"><defs><g/><clipPath id="ff472f5aee"><path d="M 158.621094 139.429688 L 216.371094 139.429688 L 216.371094 235.429688 L 158.621094 235.429688 Z M 158.621094 139.429688 " clip-rule="nonzero"/></clipPath></defs><g fill="#FFFF" fill-opacity="1"><g transform="translate(105.150039, 77.081057)"><g><path d="M 19.96875 -12.046875 L 20.203125 -12.171875 C 20.960938 -12.609375 21.140625 -13.175781 20.734375 -13.875 C 20.585938 -14.132812 20.382812 -14.367188 20.125 -14.578125 L 9.296875 -23.671875 L 1 -18.921875 L 3.34375 -5.25 C 3.394531 -4.9375 3.484375 -4.671875 3.609375 -4.453125 C 3.847656 -4.046875 4.144531 -3.785156 4.5 -3.671875 C 4.851562 -3.554688 5.160156 -3.570312 5.421875 -3.71875 L 5.65625 -3.859375 L 5.921875 -3.390625 L 0.671875 -0.375 L 0.40625 -0.84375 L 0.625 -0.984375 C 1.039062 -1.222656 1.304688 -1.695312 1.421875 -2.40625 C 1.535156 -3.125 1.523438 -3.890625 1.390625 -4.703125 L -4.28125 -39.796875 L 22.6875 -17.265625 C 23.28125 -16.765625 23.941406 -16.320312 24.671875 -15.9375 C 25.410156 -15.5625 26.097656 -15.554688 26.734375 -15.921875 L 26.96875 -16.046875 L 27.234375 -15.578125 L 20.234375 -11.578125 Z M 0.546875 -20.828125 L 7.84375 -25 L -1.46875 -32.796875 Z M 0.546875 -20.828125 "/></g></g></g><g fill="#FFFF" fill-opacity="1"><g transform="translate(130.558708, 62.454724)"><g><path d="M 5.96875 -26.609375 C 7.820312 -27.234375 9.535156 -27.460938 11.109375 -27.296875 C 12.679688 -27.140625 14.085938 -26.691406 15.328125 -25.953125 C 16.578125 -25.222656 17.648438 -24.269531 18.546875 -23.09375 C 19.441406 -21.914062 20.117188 -20.640625 20.578125 -19.265625 C 21.054688 -17.835938 21.300781 -16.367188 21.3125 -14.859375 C 21.320312 -13.347656 21.054688 -11.894531 20.515625 -10.5 C 19.972656 -9.101562 19.132812 -7.851562 18 -6.75 C 16.875 -5.644531 15.429688 -4.796875 13.671875 -4.203125 C 12.359375 -3.753906 11.078125 -3.617188 9.828125 -3.796875 C 8.578125 -3.972656 7.519531 -4.335938 6.65625 -4.890625 L 7.453125 -2.5 L 2.390625 -0.796875 L 2.21875 -1.3125 C 2.445312 -1.394531 2.628906 -1.570312 2.765625 -1.84375 C 2.898438 -2.125 3 -2.425781 3.0625 -2.75 C 3.132812 -3.082031 3.148438 -3.425781 3.109375 -3.78125 C 3.066406 -4.132812 3 -4.445312 2.90625 -4.71875 L -5.96875 -31.09375 C -6.164062 -31.6875 -6.4375 -32.210938 -6.78125 -32.671875 C -7.125 -33.140625 -7.71875 -33.242188 -8.5625 -32.984375 L -8.734375 -33.515625 L -4.09375 -36.84375 L 0.875 -22.046875 C 1.394531 -23.117188 2.117188 -24.0625 3.046875 -24.875 C 3.984375 -25.6875 4.957031 -26.265625 5.96875 -26.609375 Z M 13.453125 -6.078125 C 14.660156 -6.566406 15.625 -7.226562 16.34375 -8.0625 C 17.0625 -8.90625 17.582031 -9.835938 17.90625 -10.859375 C 18.238281 -11.890625 18.375 -12.976562 18.3125 -14.125 C 18.25 -15.28125 18.03125 -16.410156 17.65625 -17.515625 C 17.238281 -18.765625 16.660156 -19.910156 15.921875 -20.953125 C 15.179688 -22.003906 14.316406 -22.882812 13.328125 -23.59375 C 12.347656 -24.3125 11.257812 -24.785156 10.0625 -25.015625 C 8.875 -25.242188 7.640625 -25.144531 6.359375 -24.71875 C 5.628906 -24.476562 4.976562 -24.078125 4.40625 -23.515625 C 3.84375 -22.953125 3.378906 -22.3125 3.015625 -21.59375 C 2.648438 -20.882812 2.429688 -20.097656 2.359375 -19.234375 C 2.285156 -18.378906 2.390625 -17.546875 2.671875 -16.734375 L 4.828125 -10.296875 C 5.160156 -9.304688 5.648438 -8.476562 6.296875 -7.8125 C 6.941406 -7.144531 7.664062 -6.640625 8.46875 -6.296875 C 9.28125 -5.960938 10.125 -5.773438 11 -5.734375 C 11.875 -5.703125 12.691406 -5.816406 13.453125 -6.078125 Z M 13.453125 -6.078125 "/></g></g></g><g fill="#FFFF" fill-opacity="1"><g transform="translate(154.500217, 54.114193)"><g><path d="M 13.828125 -1.59375 C 12.023438 -1.332031 10.363281 -1.394531 8.84375 -1.78125 C 7.320312 -2.175781 5.972656 -2.8125 4.796875 -3.6875 C 3.628906 -4.570312 2.664062 -5.671875 1.90625 -6.984375 C 1.144531 -8.304688 0.644531 -9.800781 0.40625 -11.46875 C 0.15625 -13.226562 0.234375 -14.878906 0.640625 -16.421875 C 1.046875 -17.972656 1.710938 -19.347656 2.640625 -20.546875 C 3.578125 -21.753906 4.742188 -22.75 6.140625 -23.53125 C 7.535156 -24.320312 9.097656 -24.835938 10.828125 -25.078125 C 12.546875 -25.328125 14.164062 -25.269531 15.6875 -24.90625 C 17.207031 -24.550781 18.5625 -23.945312 19.75 -23.09375 C 20.9375 -22.238281 21.914062 -21.160156 22.6875 -19.859375 C 23.46875 -18.554688 23.972656 -17.070312 24.203125 -15.40625 C 24.421875 -13.863281 24.375 -12.320312 24.0625 -10.78125 C 23.75 -9.25 23.160156 -7.847656 22.296875 -6.578125 C 21.429688 -5.316406 20.296875 -4.238281 18.890625 -3.34375 C 17.492188 -2.457031 15.804688 -1.875 13.828125 -1.59375 Z M 10.421875 -23.203125 C 9.140625 -22.941406 8.039062 -22.460938 7.125 -21.765625 C 6.207031 -21.066406 5.476562 -20.226562 4.9375 -19.25 C 4.40625 -18.28125 4.046875 -17.207031 3.859375 -16.03125 C 3.671875 -14.863281 3.660156 -13.703125 3.828125 -12.546875 C 4.015625 -11.222656 4.40625 -9.96875 5 -8.78125 C 5.601562 -7.601562 6.359375 -6.582031 7.265625 -5.71875 C 8.171875 -4.863281 9.203125 -4.222656 10.359375 -3.796875 C 11.523438 -3.367188 12.78125 -3.25 14.125 -3.4375 C 15.445312 -3.632812 16.578125 -4.09375 17.515625 -4.8125 C 18.460938 -5.539062 19.210938 -6.410156 19.765625 -7.421875 C 20.328125 -8.429688 20.695312 -9.535156 20.875 -10.734375 C 21.0625 -11.941406 21.070312 -13.125 20.90625 -14.28125 C 20.738281 -15.46875 20.382812 -16.632812 19.84375 -17.78125 C 19.3125 -18.9375 18.597656 -19.953125 17.703125 -20.828125 C 16.816406 -21.710938 15.757812 -22.378906 14.53125 -22.828125 C 13.300781 -23.285156 11.929688 -23.410156 10.421875 -23.203125 Z M 10.421875 -23.203125 "/></g></g></g><g fill="#FFFF" fill-opacity="1"><g transform="translate(180.021129, 50.225905)"><g><path d="M 24.203125 -2.5 C 24.191406 -2.25 24.210938 -1.945312 24.265625 -1.59375 C 24.328125 -1.238281 24.410156 -0.90625 24.515625 -0.59375 C 24.628906 -0.28125 24.789062 -0.0078125 25 0.21875 C 25.21875 0.445312 25.472656 0.566406 25.765625 0.578125 L 25.734375 1.125 L 20.453125 0.890625 L 20.578125 -2.109375 C 19.992188 -1.328125 19.160156 -0.582031 18.078125 0.125 C 16.992188 0.84375 15.613281 1.164062 13.9375 1.09375 C 11.832031 1 10.175781 0.566406 8.96875 -0.203125 C 7.769531 -0.984375 6.863281 -1.953125 6.25 -3.109375 C 5.644531 -4.273438 5.28125 -5.519531 5.15625 -6.84375 C 5.03125 -8.175781 4.992188 -9.425781 5.046875 -10.59375 L 5.390625 -18.390625 C 5.398438 -18.722656 5.40625 -19.039062 5.40625 -19.34375 C 5.40625 -19.65625 5.34375 -19.941406 5.21875 -20.203125 C 5.101562 -20.460938 4.921875 -20.679688 4.671875 -20.859375 C 4.429688 -21.035156 4.070312 -21.132812 3.59375 -21.15625 L 3.625 -21.65625 L 9.203125 -23.140625 L 8.59375 -9.234375 C 8.46875 -6.472656 8.972656 -4.410156 10.109375 -3.046875 C 11.253906 -1.691406 12.703125 -0.976562 14.453125 -0.90625 C 15.398438 -0.863281 16.253906 -1.035156 17.015625 -1.421875 C 17.785156 -1.804688 18.445312 -2.273438 19 -2.828125 C 19.550781 -3.390625 19.976562 -3.972656 20.28125 -4.578125 C 20.582031 -5.191406 20.742188 -5.695312 20.765625 -6.09375 L 21.265625 -17.703125 C 21.273438 -18.035156 21.273438 -18.351562 21.265625 -18.65625 C 21.265625 -18.96875 21.207031 -19.253906 21.09375 -19.515625 C 20.976562 -19.773438 20.796875 -19.988281 20.546875 -20.15625 C 20.296875 -20.332031 19.9375 -20.429688 19.46875 -20.453125 L 19.5 -20.953125 L 25.078125 -22.453125 Z M 24.203125 -2.5 "/></g></g></g><g fill="#FFFF" fill-opacity="1"><g transform="translate(206.409956, 51.689679)"><g><path d="M 11.5625 -19.25 L 9.125 -6.3125 C 8.945312 -5.394531 8.804688 -4.554688 8.703125 -3.796875 C 8.597656 -3.035156 8.570312 -2.390625 8.625 -1.859375 C 8.675781 -1.335938 8.816406 -0.914062 9.046875 -0.59375 C 9.285156 -0.28125 9.65625 -0.0703125 10.15625 0.03125 C 10.914062 0.164062 11.691406 -0.0546875 12.484375 -0.640625 C 13.273438 -1.234375 13.851562 -2.015625 14.21875 -2.984375 L 14.71875 -2.890625 L 13.984375 1.03125 C 13.648438 0.96875 13.351562 1.019531 13.09375 1.1875 C 12.757812 1.382812 12.304688 1.578125 11.734375 1.765625 C 11.171875 1.960938 10.367188 1.960938 9.328125 1.765625 C 8.046875 1.515625 7.09375 1.070312 6.46875 0.4375 C 5.84375 -0.195312 5.445312 -0.953125 5.28125 -1.828125 C 5.113281 -2.710938 5.097656 -3.660156 5.234375 -4.671875 C 5.367188 -5.679688 5.535156 -6.703125 5.734375 -7.734375 L 8.03125 -19.921875 L 5.03125 -20.484375 L 5.375 -22.3125 L 8.375 -21.75 L 9.28125 -26.515625 C 9.394531 -27.117188 9.421875 -27.695312 9.359375 -28.25 C 9.304688 -28.800781 8.828125 -29.175781 7.921875 -29.375 L 8.03125 -29.921875 L 13.703125 -30.625 L 11.90625 -21.078125 L 17.9375 -19.953125 L 17.59375 -18.125 Z M 11.5625 -19.25 "/></g></g></g><g fill="#FFFF" fill-opacity="1"><g transform="translate(220.27374, 54.265346)"><g/></g></g><g fill="#FFFF" fill-opacity="1"><g transform="translate(232.582417, 57.776293)"><g/></g></g><g fill="#FFFF" fill-opacity="1"><g transform="translate(244.51708, 62.401678)"><g/></g></g><g fill="#FFFF" fill-opacity="1"><g transform="translate(255.572345, 66.271702)"><g><path d="M 31.921875 19.78125 C 31.742188 20.007812 31.578125 20.28125 31.421875 20.59375 C 31.273438 20.914062 31.175781 21.238281 31.125 21.5625 C 31.070312 21.882812 31.054688 22.191406 31.078125 22.484375 C 31.097656 22.773438 31.222656 23.007812 31.453125 23.1875 L 31.125 23.625 L 25.484375 19.328125 L 25.8125 18.890625 C 26.039062 19.066406 26.304688 19.132812 26.609375 19.09375 C 26.921875 19.0625 27.226562 18.972656 27.53125 18.828125 C 27.832031 18.691406 28.113281 18.507812 28.375 18.28125 C 28.644531 18.050781 28.867188 17.820312 29.046875 17.59375 L 36.1875 8.203125 C 36.6875 7.535156 37.070312 6.828125 37.34375 6.078125 C 37.625 5.328125 37.742188 4.582031 37.703125 3.84375 C 37.671875 3.113281 37.484375 2.398438 37.140625 1.703125 C 36.796875 1.003906 36.273438 0.390625 35.578125 -0.140625 C 34.796875 -0.722656 33.984375 -1.046875 33.140625 -1.109375 C 32.304688 -1.179688 31.507812 -1.09375 30.75 -0.84375 C 30 -0.59375 29.332031 -0.269531 28.75 0.125 C 28.164062 0.53125 27.742188 0.90625 27.484375 1.25 L 20.1875 10.859375 C 20.007812 11.085938 19.84375 11.363281 19.6875 11.6875 C 19.539062 12.007812 19.445312 12.335938 19.40625 12.671875 C 19.363281 13.003906 19.351562 13.316406 19.375 13.609375 C 19.394531 13.898438 19.523438 14.132812 19.765625 14.3125 L 19.4375 14.75 L 13.828125 10.5 L 14.15625 10.0625 C 14.351562 10.207031 14.609375 10.257812 14.921875 10.21875 C 15.234375 10.175781 15.539062 10.085938 15.84375 9.953125 C 16.144531 9.828125 16.425781 9.644531 16.6875 9.40625 C 16.957031 9.175781 17.179688 8.945312 17.359375 8.71875 L 24.6875 -0.921875 C 25.207031 -1.617188 25.570312 -2.359375 25.78125 -3.140625 C 25.988281 -3.929688 26.035156 -4.6875 25.921875 -5.40625 C 25.804688 -6.125 25.566406 -6.800781 25.203125 -7.4375 C 24.847656 -8.082031 24.394531 -8.617188 23.84375 -9.046875 C 23.082031 -9.617188 22.3125 -9.972656 21.53125 -10.109375 C 20.75 -10.242188 20.015625 -10.226562 19.328125 -10.0625 C 18.640625 -9.90625 18.003906 -9.644531 17.421875 -9.28125 C 16.835938 -8.914062 16.375 -8.503906 16.03125 -8.046875 L 8.4375 1.953125 C 8.257812 2.179688 8.09375 2.453125 7.9375 2.765625 C 7.789062 3.085938 7.695312 3.414062 7.65625 3.75 C 7.625 4.09375 7.617188 4.410156 7.640625 4.703125 C 7.660156 4.992188 7.785156 5.226562 8.015625 5.40625 L 7.6875 5.84375 L 2.09375 1.59375 L 2.421875 1.15625 C 2.617188 1.300781 2.867188 1.351562 3.171875 1.3125 C 3.484375 1.269531 3.789062 1.179688 4.09375 1.046875 C 4.394531 0.910156 4.675781 0.726562 4.9375 0.5 C 5.207031 0.269531 5.429688 0.0390625 5.609375 -0.1875 L 14.421875 -11.796875 C 14.597656 -12.023438 14.78125 -12.296875 14.96875 -12.609375 C 15.164062 -12.921875 15.316406 -13.238281 15.421875 -13.5625 C 15.535156 -13.894531 15.554688 -14.222656 15.484375 -14.546875 C 15.421875 -14.867188 15.210938 -15.164062 14.859375 -15.4375 L 15.171875 -15.828125 L 20.546875 -14 L 18.875 -11.78125 C 19.675781 -11.9375 20.640625 -11.957031 21.765625 -11.84375 C 22.890625 -11.726562 24.070312 -11.203125 25.3125 -10.265625 C 26.125 -9.640625 26.757812 -8.96875 27.21875 -8.25 C 27.6875 -7.53125 28.019531 -6.8125 28.21875 -6.09375 C 28.425781 -5.375 28.523438 -4.644531 28.515625 -3.90625 C 28.515625 -3.175781 28.46875 -2.507812 28.375 -1.90625 C 28.9375 -2.15625 29.546875 -2.382812 30.203125 -2.59375 C 30.859375 -2.800781 31.550781 -2.921875 32.28125 -2.953125 C 33.019531 -2.992188 33.789062 -2.894531 34.59375 -2.65625 C 35.394531 -2.425781 36.210938 -1.992188 37.046875 -1.359375 C 38.679688 -0.117188 39.738281 1.140625 40.21875 2.421875 C 40.695312 3.710938 40.851562 4.929688 40.6875 6.078125 C 40.53125 7.234375 40.175781 8.296875 39.625 9.265625 C 39.070312 10.242188 38.5625 11.039062 38.09375 11.65625 Z M 31.921875 19.78125 "/></g></g></g><g fill="#FFFF" fill-opacity="1"><g transform="translate(286.226458, 90.168999)"><g><path d="M 11.953125 -2.9375 C 11.066406 -1.988281 10.335938 -0.96875 9.765625 0.125 C 9.191406 1.21875 8.820312 2.34375 8.65625 3.5 C 8.5 4.664062 8.582031 5.847656 8.90625 7.046875 C 9.226562 8.253906 9.867188 9.429688 10.828125 10.578125 C 11.335938 11.191406 11.96875 11.757812 12.71875 12.28125 C 13.476562 12.8125 14.269531 13.226562 15.09375 13.53125 C 15.925781 13.84375 16.78125 14.019531 17.65625 14.0625 C 18.53125 14.113281 19.34375 13.96875 20.09375 13.625 L 20.40625 14 L 17.265625 16.625 C 17.128906 16.457031 16.914062 16.316406 16.625 16.203125 C 16.34375 16.085938 16.003906 15.960938 15.609375 15.828125 C 14.804688 15.546875 13.816406 15.085938 12.640625 14.453125 C 11.472656 13.828125 10.234375 12.734375 8.921875 11.171875 C 7.867188 9.921875 7.046875 8.582031 6.453125 7.15625 C 5.867188 5.726562 5.585938 4.265625 5.609375 2.765625 C 5.628906 1.265625 6.003906 -0.226562 6.734375 -1.71875 C 7.472656 -3.21875 8.65625 -4.644531 10.28125 -6 C 11.300781 -6.875 12.488281 -7.582031 13.84375 -8.125 C 15.207031 -8.664062 16.609375 -8.9375 18.046875 -8.9375 C 19.492188 -8.945312 20.953125 -8.617188 22.421875 -7.953125 C 23.890625 -7.285156 25.28125 -6.171875 26.59375 -4.609375 C 27.757812 -3.222656 28.546875 -1.804688 28.953125 -0.359375 C 29.359375 1.078125 29.425781 2.488281 29.15625 3.875 C 28.894531 5.269531 28.332031 6.609375 27.46875 7.890625 C 26.613281 9.179688 25.503906 10.398438 24.140625 11.546875 Z M 25.0625 -3.609375 C 24.25 -4.578125 23.34375 -5.253906 22.34375 -5.640625 C 21.351562 -6.023438 20.34375 -6.207031 19.3125 -6.1875 C 18.289062 -6.175781 17.269531 -5.984375 16.25 -5.609375 C 15.238281 -5.234375 14.304688 -4.757812 13.453125 -4.1875 L 23.46875 7.71875 C 24.25 7 24.914062 6.179688 25.46875 5.265625 C 26.03125 4.359375 26.414062 3.410156 26.625 2.421875 C 26.84375 1.429688 26.835938 0.414062 26.609375 -0.625 C 26.378906 -1.664062 25.863281 -2.660156 25.0625 -3.609375 Z M 25.0625 -3.609375 "/></g></g></g><g fill="#FFFF" fill-opacity="1"><g transform="translate(301.771318, 109.068191)"><g/></g></g><g fill="#FFFF" fill-opacity="1"><g transform="translate(308.70856, 119.824836)"><g/></g></g><g fill="#FFFF" fill-opacity="1"><g transform="translate(314.629703, 131.172551)"><g/></g></g><g fill="#FFFF" fill-opacity="1"><g transform="translate(319.484807, 143.015616)"><g/></g></g><g fill="#FFFF" fill-opacity="1"><g transform="translate(323.232911, 155.254177)"><g/></g></g><g fill="#FFFF" fill-opacity="1"><g transform="translate(325.842408, 167.784984)"><g/></g></g><g fill="#FFFF" fill-opacity="1"><g transform="translate(327.227087, 180.662279)"><g><path d="M 2.421875 2.78125 C 3.148438 2.757812 3.773438 2.984375 4.296875 3.453125 C 4.816406 3.929688 5.085938 4.535156 5.109375 5.265625 C 5.128906 5.992188 4.890625 6.617188 4.390625 7.140625 C 3.898438 7.660156 3.289062 7.929688 2.5625 7.953125 C 1.832031 7.972656 1.210938 7.734375 0.703125 7.234375 C 0.203125 6.742188 -0.0546875 6.132812 -0.078125 5.40625 C -0.0976562 4.675781 0.128906 4.0625 0.609375 3.5625 C 1.085938 3.0625 1.691406 2.800781 2.421875 2.78125 Z M 2.421875 2.78125 "/></g></g></g><g fill="#FFFF" fill-opacity="1"><g transform="translate(327.607879, 190.393771)"><g/></g></g><g fill="#FFFF" fill-opacity="1"><g transform="translate(326.975133, 203.177764)"><g/></g></g><g fill="#FFFF" fill-opacity="1"><g transform="translate(325.172216, 215.849767)"><g/></g></g><g fill="#FFFF" fill-opacity="1"><g transform="translate(322.214361, 228.302954)"><g/></g></g><g fill="#FFFF" fill-opacity="1"><g transform="translate(318.126466, 240.432219)"><g/></g></g><g fill="#FFFF" fill-opacity="1"><g transform="translate(312.943047, 252.13534)"><g/></g></g><g fill="#FFFF" fill-opacity="1"><g transform="translate(306.707833, 263.313579)"><g/></g></g><g fill="#FFFF" fill-opacity="1"><g transform="translate(299.473386, 273.872585)"><g/></g></g><g fill="#FFFF" fill-opacity="1"><g transform="translate(291.300737, 283.723418)"><g/></g></g><g fill="#FFFF" fill-opacity="1"><g transform="translate(282.258825, 292.782878)"><g/></g></g><g fill="#FFFF" fill-opacity="1"><g transform="translate(273.535748, 301.067339)"><g><path d="M -19.71875 12.4375 L -19.953125 12.578125 C -20.703125 13.023438 -20.867188 13.59375 -20.453125 14.28125 C -20.304688 14.53125 -20.097656 14.765625 -19.828125 14.984375 L -8.8125 23.84375 L -0.625 18.9375 L -3.25 5.3125 C -3.289062 5.007812 -3.378906 4.75 -3.515625 4.53125 C -3.753906 4.125 -4.050781 3.867188 -4.40625 3.765625 C -4.769531 3.660156 -5.082031 3.679688 -5.34375 3.828125 L -5.578125 3.96875 L -5.859375 3.5 L -0.65625 0.390625 L -0.375 0.859375 L -0.609375 1 C -1.015625 1.25 -1.269531 1.726562 -1.375 2.4375 C -1.476562 3.15625 -1.457031 3.921875 -1.3125 4.734375 L 5.0625 39.703125 L -22.34375 17.703125 C -22.945312 17.210938 -23.617188 16.785156 -24.359375 16.421875 C -25.097656 16.066406 -25.78125 16.070312 -26.40625 16.4375 L -26.640625 16.578125 L -26.921875 16.109375 L -20 11.96875 Z M -0.140625 20.8125 L -7.34375 25.140625 L 2.109375 32.78125 Z M -0.140625 20.8125 "/></g></g></g><g fill="#FFFF" fill-opacity="1"><g transform="translate(248.420766, 316.191151)"><g><path d="M -5.4375 26.703125 C -7.28125 27.367188 -8.988281 27.632812 -10.5625 27.5 C -12.144531 27.375 -13.566406 26.953125 -14.828125 26.234375 C -16.085938 25.523438 -17.175781 24.59375 -18.09375 23.4375 C -19.019531 22.28125 -19.726562 21.019531 -20.21875 19.65625 C -20.71875 18.25 -20.984375 16.785156 -21.015625 15.265625 C -21.054688 13.753906 -20.816406 12.296875 -20.296875 10.890625 C -19.785156 9.492188 -18.972656 8.226562 -17.859375 7.09375 C -16.753906 5.96875 -15.328125 5.09375 -13.578125 4.46875 C -12.273438 4 -11 3.835938 -9.75 3.984375 C -8.507812 4.140625 -7.441406 4.488281 -6.546875 5.03125 L -7.390625 2.65625 L -2.375 0.84375 L -2.1875 1.359375 C -2.414062 1.441406 -2.597656 1.625 -2.734375 1.90625 C -2.867188 2.1875 -2.960938 2.488281 -3.015625 2.8125 C -3.066406 3.144531 -3.066406 3.484375 -3.015625 3.828125 C -2.972656 4.179688 -2.898438 4.5 -2.796875 4.78125 L 6.59375 30.96875 C 6.800781 31.5625 7.078125 32.082031 7.421875 32.53125 C 7.773438 32.976562 8.367188 33.070312 9.203125 32.8125 L 9.390625 33.328125 L 4.84375 36.765625 L -0.421875 22.078125 C -0.929688 23.148438 -1.644531 24.097656 -2.5625 24.921875 C -3.476562 25.753906 -4.4375 26.347656 -5.4375 26.703125 Z M -13.328125 6.328125 C -14.535156 6.835938 -15.488281 7.519531 -16.1875 8.375 C -16.882812 9.238281 -17.382812 10.1875 -17.6875 11.21875 C -18 12.25 -18.113281 13.335938 -18.03125 14.484375 C -17.945312 15.628906 -17.707031 16.753906 -17.3125 17.859375 C -16.875 19.085938 -16.273438 20.222656 -15.515625 21.265625 C -14.753906 22.316406 -13.875 23.179688 -12.875 23.859375 C -11.875 24.546875 -10.773438 24.992188 -9.578125 25.203125 C -8.378906 25.410156 -7.148438 25.289062 -5.890625 24.84375 C -5.160156 24.582031 -4.507812 24.164062 -3.9375 23.59375 C -3.375 23.03125 -2.921875 22.382812 -2.578125 21.65625 C -2.242188 20.9375 -2.046875 20.148438 -1.984375 19.296875 C -1.921875 18.441406 -2.035156 17.609375 -2.328125 16.796875 L -4.609375 10.40625 C -4.960938 9.414062 -5.472656 8.59375 -6.140625 7.9375 C -6.804688 7.28125 -7.546875 6.789062 -8.359375 6.46875 C -9.171875 6.144531 -10.007812 5.972656 -10.875 5.953125 C -11.75 5.929688 -12.566406 6.054688 -13.328125 6.328125 Z M -13.328125 6.328125 "/></g></g></g><g fill="#FFFF" fill-opacity="1"><g transform="translate(224.647933, 325.003101)"><g><path d="M -13.796875 1.859375 C -12.003906 1.566406 -10.335938 1.597656 -8.796875 1.953125 C -7.265625 2.316406 -5.90625 2.925781 -4.71875 3.78125 C -3.53125 4.632812 -2.539062 5.71875 -1.75 7.03125 C -0.96875 8.34375 -0.441406 9.828125 -0.171875 11.484375 C 0.109375 13.234375 0.0625 14.882812 -0.3125 16.4375 C -0.6875 18 -1.328125 19.382812 -2.234375 20.59375 C -3.148438 21.8125 -4.296875 22.828125 -5.671875 23.640625 C -7.046875 24.460938 -8.597656 25.015625 -10.328125 25.296875 C -12.046875 25.578125 -13.664062 25.550781 -15.1875 25.21875 C -16.71875 24.894531 -18.082031 24.316406 -19.28125 23.484375 C -20.488281 22.648438 -21.492188 21.585938 -22.296875 20.296875 C -23.097656 19.003906 -23.628906 17.53125 -23.890625 15.875 C -24.148438 14.332031 -24.140625 12.789062 -23.859375 11.25 C -23.578125 9.71875 -23.015625 8.3125 -22.171875 7.03125 C -21.328125 5.75 -20.210938 4.644531 -18.828125 3.71875 C -17.453125 2.800781 -15.773438 2.179688 -13.796875 1.859375 Z M -9.96875 23.40625 C -8.675781 23.113281 -7.582031 22.613281 -6.6875 21.90625 C -5.800781 21.195312 -5.097656 20.347656 -4.578125 19.359375 C -4.054688 18.367188 -3.710938 17.285156 -3.546875 16.109375 C -3.378906 14.941406 -3.390625 13.78125 -3.578125 12.625 C -3.796875 11.300781 -4.210938 10.050781 -4.828125 8.875 C -5.441406 7.707031 -6.210938 6.703125 -7.140625 5.859375 C -8.066406 5.015625 -9.113281 4.394531 -10.28125 4 C -11.457031 3.601562 -12.710938 3.507812 -14.046875 3.71875 C -15.367188 3.9375 -16.492188 4.414062 -17.421875 5.15625 C -18.359375 5.894531 -19.09375 6.773438 -19.625 7.796875 C -20.164062 8.828125 -20.507812 9.941406 -20.65625 11.140625 C -20.8125 12.347656 -20.796875 13.53125 -20.609375 14.6875 C -20.421875 15.863281 -20.046875 17.023438 -19.484375 18.171875 C -18.929688 19.316406 -18.195312 20.320312 -17.28125 21.1875 C -16.375 22.050781 -15.300781 22.695312 -14.0625 23.125 C -12.832031 23.550781 -11.46875 23.644531 -9.96875 23.40625 Z M -9.96875 23.40625 "/></g></g></g><g fill="#FFFF" fill-opacity="1"><g transform="translate(199.206865, 329.397481)"><g><path d="M -24.140625 2.96875 C -24.140625 2.71875 -24.171875 2.414062 -24.234375 2.0625 C -24.296875 1.71875 -24.390625 1.390625 -24.515625 1.078125 C -24.640625 0.765625 -24.804688 0.492188 -25.015625 0.265625 C -25.234375 0.046875 -25.488281 -0.0625 -25.78125 -0.0625 L -25.765625 -0.609375 L -20.46875 -0.484375 L -20.546875 2.515625 C -19.972656 1.722656 -19.148438 0.957031 -18.078125 0.21875 C -17.003906 -0.507812 -15.628906 -0.851562 -13.953125 -0.8125 C -11.847656 -0.769531 -10.1875 -0.375 -8.96875 0.375 C -7.75 1.132812 -6.820312 2.085938 -6.1875 3.234375 C -5.5625 4.378906 -5.171875 5.617188 -5.015625 6.953125 C -4.867188 8.285156 -4.8125 9.535156 -4.84375 10.703125 L -5.015625 18.5 C -5.023438 18.832031 -5.023438 19.148438 -5.015625 19.453125 C -5.015625 19.765625 -4.953125 20.050781 -4.828125 20.3125 C -4.703125 20.570312 -4.515625 20.785156 -4.265625 20.953125 C -4.023438 21.117188 -3.664062 21.207031 -3.1875 21.21875 L -3.1875 21.71875 L -8.75 23.3125 L -8.421875 9.40625 C -8.347656 6.632812 -8.894531 4.582031 -10.0625 3.25 C -11.226562 1.914062 -12.6875 1.226562 -14.4375 1.1875 C -15.382812 1.164062 -16.234375 1.351562 -16.984375 1.75 C -17.742188 2.144531 -18.394531 2.628906 -18.9375 3.203125 C -19.476562 3.773438 -19.894531 4.367188 -20.1875 4.984375 C -20.476562 5.597656 -20.628906 6.101562 -20.640625 6.5 L -20.90625 18.125 C -20.914062 18.457031 -20.914062 18.773438 -20.90625 19.078125 C -20.894531 19.390625 -20.828125 19.671875 -20.703125 19.921875 C -20.585938 20.179688 -20.40625 20.394531 -20.15625 20.5625 C -19.90625 20.738281 -19.546875 20.832031 -19.078125 20.84375 L -19.078125 21.34375 L -24.625 22.9375 Z M -24.140625 2.96875 "/></g></g></g><g fill="#FFFF" fill-opacity="1"><g transform="translate(172.794199, 328.45456)"><g><path d="M -11.1875 19.46875 L -9 6.5 C -8.84375 5.570312 -8.71875 4.726562 -8.625 3.96875 C -8.539062 3.207031 -8.523438 2.5625 -8.578125 2.03125 C -8.640625 1.507812 -8.789062 1.085938 -9.03125 0.765625 C -9.28125 0.453125 -9.65625 0.253906 -10.15625 0.171875 C -10.914062 0.046875 -11.6875 0.28125 -12.46875 0.875 C -13.25 1.476562 -13.8125 2.269531 -14.15625 3.25 L -14.65625 3.171875 L -14 -0.75 C -13.664062 -0.695312 -13.367188 -0.757812 -13.109375 -0.9375 C -12.785156 -1.144531 -12.335938 -1.347656 -11.765625 -1.546875 C -11.203125 -1.742188 -10.40625 -1.753906 -9.375 -1.578125 C -8.070312 -1.359375 -7.101562 -0.9375 -6.46875 -0.3125 C -5.832031 0.3125 -5.421875 1.0625 -5.234375 1.9375 C -5.054688 2.8125 -5.023438 3.753906 -5.140625 4.765625 C -5.253906 5.785156 -5.398438 6.8125 -5.578125 7.84375 L -7.640625 20.0625 L -4.625 20.578125 L -4.9375 22.421875 L -7.953125 21.90625 L -8.75 26.6875 C -8.851562 27.289062 -8.867188 27.867188 -8.796875 28.421875 C -8.734375 28.972656 -8.253906 29.34375 -7.359375 29.53125 L -7.4375 30.078125 L -13.109375 30.890625 L -11.5 21.3125 L -17.546875 20.296875 L -17.234375 18.453125 Z M -11.1875 19.46875 "/></g></g></g><g fill="#FFFF" fill-opacity="1"><g transform="translate(158.885291, 326.146735)"><g/></g></g><g fill="#FFFF" fill-opacity="1"><g transform="translate(146.509771, 322.879198)"><g/></g></g><g fill="#FFFF" fill-opacity="1"><g transform="translate(134.486226, 318.490035)"><g/></g></g><g fill="#FFFF" fill-opacity="1"><g transform="translate(123.357011, 314.838334)"><g><path d="M -32.3125 -19.140625 C -32.132812 -19.378906 -31.972656 -19.65625 -31.828125 -19.96875 C -31.691406 -20.289062 -31.59375 -20.613281 -31.53125 -20.9375 C -31.476562 -21.257812 -31.46875 -21.566406 -31.5 -21.859375 C -31.539062 -22.160156 -31.679688 -22.394531 -31.921875 -22.5625 L -31.59375 -23 L -25.859375 -18.828125 L -26.1875 -18.390625 C -26.414062 -18.554688 -26.679688 -18.613281 -26.984375 -18.5625 C -27.285156 -18.519531 -27.585938 -18.425781 -27.890625 -18.28125 C -28.191406 -18.132812 -28.472656 -17.945312 -28.734375 -17.71875 C -29.003906 -17.488281 -29.226562 -17.253906 -29.40625 -17.015625 L -36.34375 -7.484375 C -36.832031 -6.816406 -37.207031 -6.101562 -37.46875 -5.34375 C -37.726562 -4.582031 -37.832031 -3.832031 -37.78125 -3.09375 C -37.726562 -2.363281 -37.519531 -1.65625 -37.15625 -0.96875 C -36.800781 -0.28125 -36.269531 0.316406 -35.5625 0.828125 C -34.769531 1.398438 -33.953125 1.710938 -33.109375 1.765625 C -32.273438 1.828125 -31.484375 1.722656 -30.734375 1.453125 C -29.984375 1.191406 -29.320312 0.851562 -28.75 0.4375 C -28.175781 0.0195312 -27.757812 -0.363281 -27.5 -0.71875 L -20.40625 -10.46875 C -20.226562 -10.707031 -20.066406 -10.984375 -19.921875 -11.296875 C -19.773438 -11.617188 -19.679688 -11.945312 -19.640625 -12.28125 C -19.609375 -12.613281 -19.609375 -12.925781 -19.640625 -13.21875 C -19.671875 -13.507812 -19.804688 -13.742188 -20.046875 -13.921875 L -19.71875 -14.359375 L -14.03125 -10.21875 L -14.359375 -9.78125 C -14.566406 -9.925781 -14.816406 -9.972656 -15.109375 -9.921875 C -15.410156 -9.878906 -15.710938 -9.785156 -16.015625 -9.640625 C -16.328125 -9.503906 -16.613281 -9.316406 -16.875 -9.078125 C -17.144531 -8.847656 -17.367188 -8.613281 -17.546875 -8.375 L -24.671875 1.40625 C -25.179688 2.113281 -25.53125 2.859375 -25.71875 3.640625 C -25.90625 4.429688 -25.929688 5.1875 -25.796875 5.90625 C -25.671875 6.632812 -25.421875 7.3125 -25.046875 7.9375 C -24.679688 8.570312 -24.21875 9.09375 -23.65625 9.5 C -22.882812 10.0625 -22.109375 10.398438 -21.328125 10.515625 C -20.546875 10.640625 -19.8125 10.613281 -19.125 10.4375 C -18.4375 10.269531 -17.804688 10 -17.234375 9.625 C -16.660156 9.25 -16.203125 8.828125 -15.859375 8.359375 L -8.484375 -1.78125 C -8.304688 -2.019531 -8.144531 -2.296875 -8 -2.609375 C -7.851562 -2.929688 -7.757812 -3.257812 -7.71875 -3.59375 C -7.6875 -3.9375 -7.6875 -4.253906 -7.71875 -4.546875 C -7.757812 -4.835938 -7.898438 -5.070312 -8.140625 -5.25 L -7.8125 -5.6875 L -2.125 -1.546875 L -2.453125 -1.109375 C -2.648438 -1.253906 -2.898438 -1.300781 -3.203125 -1.25 C -3.503906 -1.207031 -3.804688 -1.113281 -4.109375 -0.96875 C -4.410156 -0.820312 -4.691406 -0.628906 -4.953125 -0.390625 C -5.222656 -0.160156 -5.445312 0.0703125 -5.625 0.3125 L -14.203125 12.09375 C -14.367188 12.320312 -14.539062 12.59375 -14.71875 12.90625 C -14.90625 13.21875 -15.050781 13.535156 -15.15625 13.859375 C -15.257812 14.191406 -15.273438 14.519531 -15.203125 14.84375 C -15.128906 15.175781 -14.914062 15.46875 -14.5625 15.71875 L -14.859375 16.125 L -20.265625 14.40625 L -18.625 12.15625 C -19.4375 12.332031 -20.398438 12.367188 -21.515625 12.265625 C -22.640625 12.171875 -23.835938 11.664062 -25.109375 10.75 C -25.929688 10.144531 -26.578125 9.488281 -27.046875 8.78125 C -27.523438 8.070312 -27.875 7.359375 -28.09375 6.640625 C -28.3125 5.929688 -28.425781 5.207031 -28.4375 4.46875 C -28.445312 3.738281 -28.410156 3.070312 -28.328125 2.46875 C -28.890625 2.726562 -29.5 2.96875 -30.15625 3.1875 C -30.8125 3.40625 -31.503906 3.539062 -32.234375 3.59375 C -32.960938 3.644531 -33.726562 3.554688 -34.53125 3.328125 C -35.332031 3.109375 -36.160156 2.691406 -37.015625 2.078125 C -38.660156 0.867188 -39.738281 -0.367188 -40.25 -1.640625 C -40.769531 -2.910156 -40.957031 -4.125 -40.8125 -5.28125 C -40.675781 -6.4375 -40.335938 -7.503906 -39.796875 -8.484375 C -39.265625 -9.472656 -38.769531 -10.28125 -38.3125 -10.90625 Z M -32.3125 -19.140625 "/></g></g></g><g fill="#FFFF" fill-opacity="1"><g transform="translate(92.236506, 291.552425)"><g><path d="M -11.890625 3.15625 C -11.023438 2.207031 -10.316406 1.175781 -9.765625 0.0625 C -9.210938 -1.050781 -8.863281 -2.1875 -8.71875 -3.34375 C -8.582031 -4.5 -8.6875 -5.675781 -9.03125 -6.875 C -9.382812 -8.082031 -10.050781 -9.242188 -11.03125 -10.359375 C -11.5625 -10.960938 -12.207031 -11.519531 -12.96875 -12.03125 C -13.726562 -12.550781 -14.523438 -12.953125 -15.359375 -13.234375 C -16.203125 -13.515625 -17.054688 -13.671875 -17.921875 -13.703125 C -18.796875 -13.742188 -19.609375 -13.582031 -20.359375 -13.21875 L -20.671875 -13.578125 L -17.59375 -16.28125 C -17.445312 -16.113281 -17.226562 -15.972656 -16.9375 -15.859375 C -16.65625 -15.753906 -16.3125 -15.640625 -15.90625 -15.515625 C -15.101562 -15.253906 -14.109375 -14.820312 -12.921875 -14.21875 C -11.742188 -13.613281 -10.484375 -12.539062 -9.140625 -11 C -8.054688 -9.769531 -7.207031 -8.445312 -6.59375 -7.03125 C -5.976562 -5.613281 -5.664062 -4.15625 -5.65625 -2.65625 C -5.65625 -1.15625 -6.003906 0.347656 -6.703125 1.859375 C -7.410156 3.367188 -8.5625 4.820312 -10.15625 6.21875 C -11.164062 7.101562 -12.34375 7.828125 -13.6875 8.390625 C -15.03125 8.960938 -16.421875 9.265625 -17.859375 9.296875 C -19.304688 9.328125 -20.769531 9.023438 -22.25 8.390625 C -23.738281 7.753906 -25.15625 6.664062 -26.5 5.125 C -27.695312 3.769531 -28.507812 2.367188 -28.9375 0.921875 C -29.363281 -0.515625 -29.460938 -1.925781 -29.234375 -3.3125 C -29.003906 -4.707031 -28.46875 -6.054688 -27.625 -7.359375 C -26.789062 -8.660156 -25.703125 -9.898438 -24.359375 -11.078125 Z M -24.984375 4.09375 C -24.148438 5.050781 -23.234375 5.710938 -22.234375 6.078125 C -21.242188 6.441406 -20.226562 6.601562 -19.1875 6.5625 C -18.15625 6.53125 -17.132812 6.316406 -16.125 5.921875 C -15.125 5.523438 -14.203125 5.03125 -13.359375 4.4375 L -23.609375 -7.265625 C -24.378906 -6.523438 -25.035156 -5.691406 -25.578125 -4.765625 C -26.117188 -3.835938 -26.488281 -2.875 -26.6875 -1.875 C -26.882812 -0.882812 -26.851562 0.117188 -26.59375 1.140625 C -26.332031 2.171875 -25.796875 3.15625 -24.984375 4.09375 Z M -24.984375 4.09375 "/></g></g></g><g fill="#FFFF" fill-opacity="1"><g transform="translate(76.322903, 272.961569)"><g/></g></g><g fill="#FFFF" fill-opacity="1"><g transform="translate(69.174912, 262.343838)"><g/></g></g><g fill="#FFFF" fill-opacity="1"><g transform="translate(63.031163, 251.115074)"><g/></g></g><g fill="#FFFF" fill-opacity="1"><g transform="translate(57.943479, 239.370052)"><g/></g></g><g fill="#FFFF" fill-opacity="1"><g transform="translate(53.954763, 227.207774)"><g/></g></g><g fill="#FFFF" fill-opacity="1"><g transform="translate(51.098684, 214.730868)"><g/></g></g><g fill="#FFFF" fill-opacity="1"><g transform="translate(49.456415, 201.8914)"><g><path d="M -2.46875 -2.734375 C -3.195312 -2.703125 -3.828125 -2.914062 -4.359375 -3.375 C -4.898438 -3.84375 -5.1875 -4.441406 -5.21875 -5.171875 C -5.25 -5.898438 -5.019531 -6.523438 -4.53125 -7.046875 C -4.050781 -7.578125 -3.445312 -7.859375 -2.71875 -7.890625 C -1.988281 -7.921875 -1.363281 -7.695312 -0.84375 -7.21875 C -0.332031 -6.75 -0.0625 -6.148438 -0.03125 -5.421875 C 0 -4.691406 -0.210938 -4.066406 -0.671875 -3.546875 C -1.140625 -3.035156 -1.738281 -2.765625 -2.46875 -2.734375 Z M -2.46875 -2.734375 "/></g></g></g><g clip-path="url(#ff472f5aee)"><path fill="#FFFF" d="M 168.703125 139.679688 L 216.363281 187.339844 L 168.371094 235.335938 L 158.613281 225.578125 L 196.847656 187.339844 L 158.941406 149.4375 L 168.703125 139.679688 " fill-opacity="1" fill-rule="nonzero"/></g></svg>