<svg xmlns="http://www.w3.org/2000/svg" xmlns:xlink="http://www.w3.org/1999/xlink" width="500" zoomAndPan="magnify" viewBox="0 0 375 374.999991" height="500" preserveAspectRatio="xMidYMid meet" version="1.0"><defs><g/></defs><g fill="#ffffff" fill-opacity="1"><g transform="translate(78.055888, 93.164183)"><g><path d="M -1.484375 -1.15625 C -0.773438 -1.789062 -0.359375 -2.457031 -0.234375 -3.15625 C -0.109375 -3.863281 -0.140625 -4.59375 -0.328125 -5.34375 C -0.523438 -6.101562 -0.90625 -7.171875 -1.46875 -8.546875 L -2.078125 -10.09375 L -14.5 -41.5625 L -13.484375 -42.46875 L 17.359375 -26.796875 C 18.347656 -26.304688 19.347656 -25.71875 20.359375 -25.03125 C 21.378906 -24.34375 22.125 -23.707031 22.59375 -23.125 L 25.3125 -25.84375 L 26.96875 -23.984375 L 17.296875 -15.375 L 16.0625 -16.765625 C 17.6875 -18.285156 17.910156 -19.707031 16.734375 -21.03125 C 16.253906 -21.5625 15.523438 -22.09375 14.546875 -22.625 L 9.546875 -25.296875 L -1.234375 -15.25 C -0.628906 -13.726562 0.210938 -11.785156 1.296875 -9.421875 C 1.847656 -8.234375 2.367188 -6.945312 2.859375 -5.5625 L 5.984375 -8.65625 L 7.640625 -6.796875 L -0.25 0.234375 Z M 7.5625 -26.328125 L -2.625 -31.734375 L -9.15625 -35.234375 L -9.234375 -35.171875 L -6.765625 -28.8125 L -3.34375 -20.34375 L -2.203125 -17.65625 Z M 7.5625 -26.328125 "/></g></g></g><g fill="#ffffff" fill-opacity="1"><g transform="translate(101.21672, 72.147759)"><g><path d="M 14.234375 -6.984375 C 12.921875 -6.242188 11.492188 -5.738281 9.953125 -5.46875 C 8.421875 -5.207031 6.875 -5.359375 5.3125 -5.921875 L 5.375 -3.03125 L 3.640625 -2.0625 L -13.625 -32.90625 C -14.332031 -34.15625 -14.882812 -35.253906 -15.28125 -36.203125 L -18.671875 -34.015625 L -19.84375 -36.09375 C -17.875 -37.207031 -16.535156 -38.113281 -15.828125 -38.8125 C -15.117188 -39.519531 -14.648438 -40.21875 -14.421875 -40.90625 L -13 -41.703125 L -4.71875 -27.015625 C -4.320312 -28.453125 -3.632812 -29.78125 -2.65625 -31 C -1.675781 -32.226562 -0.429688 -33.269531 1.078125 -34.125 C 3.179688 -35.3125 5.375 -35.878906 7.65625 -35.828125 C 9.9375 -35.773438 12.097656 -35.066406 14.140625 -33.703125 C 16.191406 -32.347656 17.921875 -30.425781 19.328125 -27.9375 C 20.867188 -25.195312 21.628906 -22.457031 21.609375 -19.71875 C 21.597656 -16.988281 20.921875 -14.5 19.578125 -12.25 C 18.242188 -10 16.460938 -8.242188 14.234375 -6.984375 Z M 13.09375 -9.015625 C 15.457031 -10.347656 16.796875 -12.367188 17.109375 -15.078125 C 17.421875 -17.785156 16.695312 -20.695312 14.9375 -23.8125 C 13 -27.257812 10.804688 -29.648438 8.359375 -30.984375 C 5.921875 -32.328125 3.457031 -32.296875 0.96875 -30.890625 C -0.125 -30.273438 -1.054688 -29.410156 -1.828125 -28.296875 C -2.609375 -27.179688 -3.140625 -25.984375 -3.421875 -24.703125 L 3.625 -12.234375 C 6.0625 -7.898438 9.21875 -6.828125 13.09375 -9.015625 Z M 13.09375 -9.015625 "/></g></g></g><g fill="#ffffff" fill-opacity="1"><g transform="translate(126.213484, 57.561175)"><g><path d="M 16.015625 -4.140625 C 13.535156 -3.347656 11.078125 -3.207031 8.640625 -3.71875 C 6.203125 -4.226562 4.046875 -5.332031 2.171875 -7.03125 C 0.304688 -8.738281 -1.039062 -10.910156 -1.875 -13.546875 C -2.757812 -16.335938 -2.96875 -19.0625 -2.5 -21.71875 C -2.039062 -24.382812 -0.988281 -26.695312 0.65625 -28.65625 C 2.3125 -30.625 4.394531 -32.007812 6.90625 -32.8125 C 9.394531 -33.601562 11.867188 -33.726562 14.328125 -33.1875 C 16.796875 -32.65625 18.960938 -31.535156 20.828125 -29.828125 C 22.703125 -28.117188 24.046875 -25.988281 24.859375 -23.4375 C 25.722656 -20.707031 25.914062 -18 25.4375 -15.3125 C 24.957031 -12.632812 23.898438 -10.300781 22.265625 -8.3125 C 20.628906 -6.332031 18.546875 -4.941406 16.015625 -4.140625 Z M 15.765625 -6.4375 C 18.398438 -7.269531 19.988281 -8.957031 20.53125 -11.5 C 21.082031 -14.050781 20.851562 -16.925781 19.84375 -20.125 C 18.6875 -23.75 17.023438 -26.644531 14.859375 -28.8125 C 12.691406 -30.976562 10.253906 -31.632812 7.546875 -30.78125 C 4.890625 -29.9375 3.238281 -28.203125 2.59375 -25.578125 C 1.945312 -22.960938 2.128906 -20.054688 3.140625 -16.859375 C 3.878906 -14.554688 4.878906 -12.503906 6.140625 -10.703125 C 7.398438 -8.898438 8.863281 -7.59375 10.53125 -6.78125 C 12.195312 -5.96875 13.941406 -5.851562 15.765625 -6.4375 Z M 15.765625 -6.4375 "/></g></g></g><g fill="#ffffff" fill-opacity="1"><g transform="translate(153.769675, 48.330781)"><g><path d="M 14.453125 -0.515625 C 11.265625 -0.203125 8.835938 -0.890625 7.171875 -2.578125 C 5.503906 -4.273438 4.445312 -7.367188 4 -11.859375 L 3 -21.890625 C 2.851562 -23.472656 2.804688 -24.703125 2.859375 -25.578125 L -1 -25.015625 L -1.21875 -27.328125 L 0.515625 -27.5 C 1.984375 -27.644531 3.078125 -27.882812 3.796875 -28.21875 C 4.523438 -28.5625 5.125 -29.003906 5.59375 -29.546875 L 7.234375 -29.71875 L 8.9375 -12.53125 C 9.257812 -9.238281 9.957031 -6.863281 11.03125 -5.40625 C 12.101562 -3.957031 13.707031 -3.34375 15.84375 -3.5625 C 17.226562 -3.695312 18.546875 -4.242188 19.796875 -5.203125 C 21.054688 -6.160156 22.039062 -7.300781 22.75 -8.625 L 21.3125 -23.078125 C 21.144531 -24.847656 21.097656 -26.285156 21.171875 -27.390625 L 17.125 -26.8125 L 16.90625 -29.125 L 18.640625 -29.296875 C 20.117188 -29.441406 21.21875 -29.679688 21.9375 -30.015625 C 22.65625 -30.359375 23.253906 -30.800781 23.734375 -31.34375 L 25.359375 -31.515625 L 27.421875 -10.21875 C 27.640625 -8.039062 27.734375 -6.269531 27.703125 -4.90625 L 31.75 -5.53125 L 31.984375 -3.171875 L 23.9375 -2.375 C 23.632812 -3.507812 23.394531 -4.617188 23.21875 -5.703125 C 22.082031 -4.347656 20.726562 -3.179688 19.15625 -2.203125 C 17.59375 -1.234375 16.023438 -0.671875 14.453125 -0.515625 Z M 14.453125 -0.515625 "/></g></g></g><g fill="#ffffff" fill-opacity="1"><g transform="translate(183.964266, 45.563299)"><g><path d="M 13.03125 1.890625 C 7.875 1.503906 5.578125 -2.144531 6.140625 -9.0625 L 7.484375 -25.40625 L 3.125 -25.6875 L 3.3125 -28.125 C 5.113281 -28.019531 6.703125 -28.71875 8.078125 -30.21875 C 9.460938 -31.726562 10.53125 -33.472656 11.28125 -35.453125 L 13.21875 -35.296875 L 12.625 -27.421875 L 22.09375 -26.71875 L 21.921875 -24.5 L 12.453125 -25.09375 C 11.972656 -19.351562 11.640625 -15.375 11.453125 -13.15625 C 11.265625 -10.9375 11.160156 -9.691406 11.140625 -9.421875 C 10.941406 -6.753906 11.113281 -4.75 11.65625 -3.40625 C 12.195312 -2.0625 13.253906 -1.328125 14.828125 -1.203125 C 15.816406 -1.128906 16.8125 -1.351562 17.8125 -1.875 C 18.820312 -2.40625 19.71875 -3.175781 20.5 -4.1875 L 21.9375 -2.828125 C 20.3125 -0.753906 18.753906 0.570312 17.265625 1.15625 C 15.785156 1.75 14.375 1.992188 13.03125 1.890625 Z M 13.03125 1.890625 "/></g></g></g><g fill="#ffffff" fill-opacity="1"><g transform="translate(203.50936, 47.102823)"><g/></g></g><g fill="#ffffff" fill-opacity="1"><g transform="translate(216.317935, 49.478317)"><g/></g></g><g fill="#ffffff" fill-opacity="1"><g transform="translate(228.850825, 53.032009)"><g/></g></g><g fill="#ffffff" fill-opacity="1"><g transform="translate(239.993516, 55.045718)"><g><path d="M 3.015625 -0.0625 C 3.929688 0.539062 4.734375 0.742188 5.421875 0.546875 C 6.117188 0.347656 6.738281 -0.078125 7.28125 -0.734375 C 7.832031 -1.398438 8.601562 -2.488281 9.59375 -4 L 16.65625 -14.796875 C 17.53125 -16.117188 18.265625 -17.097656 18.859375 -17.734375 L 15.375 -19.765625 L 16.6875 -21.75 C 18.550781 -20.519531 19.894531 -19.78125 20.71875 -19.53125 C 21.550781 -19.28125 22.351562 -19.222656 23.125 -19.359375 L 24.484375 -18.46875 C 24.222656 -17.945312 23.734375 -17.066406 23.015625 -15.828125 C 24.554688 -16.035156 26.109375 -15.984375 27.671875 -15.671875 C 29.234375 -15.367188 30.609375 -14.828125 31.796875 -14.046875 C 33.347656 -13.035156 34.488281 -11.898438 35.21875 -10.640625 C 35.945312 -9.378906 36.273438 -8.046875 36.203125 -6.640625 C 37.953125 -6.816406 39.722656 -6.738281 41.515625 -6.40625 C 43.304688 -6.082031 44.847656 -5.492188 46.140625 -4.640625 C 48.910156 -2.828125 50.382812 -0.660156 50.5625 1.859375 C 50.738281 4.378906 49.582031 7.46875 47.09375 11.125 L 41.296875 19.890625 C 40.359375 21.304688 39.59375 22.335938 39 22.984375 L 42.046875 24.796875 L 40.78125 26.734375 L 31.140625 20.40625 L 32.078125 18.984375 C 32.992188 19.585938 33.796875 19.785156 34.484375 19.578125 C 35.171875 19.378906 35.785156 18.953125 36.328125 18.296875 C 36.878906 17.640625 37.648438 16.554688 38.640625 15.046875 L 42.96875 8.421875 C 44.75 5.703125 45.65625 3.390625 45.6875 1.484375 C 45.71875 -0.410156 44.816406 -1.957031 42.984375 -3.15625 C 42.003906 -3.800781 40.878906 -4.234375 39.609375 -4.453125 C 38.335938 -4.679688 37.09375 -4.695312 35.875 -4.5 C 35.550781 -3.300781 34.957031 -2.039062 34.09375 -0.71875 L 26.71875 10.328125 C 25.78125 11.742188 25.015625 12.78125 24.421875 13.4375 L 27.484375 15.25 L 26.21875 17.1875 L 16.5625 10.859375 L 17.5 9.4375 C 18.40625 10.03125 19.207031 10.226562 19.90625 10.03125 C 20.601562 9.832031 21.203125 9.414062 21.703125 8.78125 C 22.203125 8.144531 22.992188 7.050781 24.078125 5.5 L 28.453125 -1.09375 C 30.273438 -3.8125 31.222656 -6.117188 31.296875 -8.015625 C 31.367188 -9.910156 30.507812 -11.445312 28.71875 -12.625 C 27.726562 -13.269531 26.617188 -13.703125 25.390625 -13.921875 C 24.171875 -14.148438 22.988281 -14.144531 21.84375 -13.90625 L 20.1875 -11.3125 L 12.234375 0.84375 C 11.296875 2.257812 10.53125 3.289062 9.9375 3.9375 L 13 5.75 L 11.734375 7.6875 L 2.078125 1.359375 Z M 3.015625 -0.0625 "/></g></g></g><g fill="#ffffff" fill-opacity="1"><g transform="translate(277.776801, 80.570925)"><g><path d="M 10.203125 12.59375 C 8.453125 10.664062 7.328125 8.515625 6.828125 6.140625 C 6.328125 3.765625 6.515625 1.363281 7.390625 -1.0625 C 8.273438 -3.488281 9.820312 -5.703125 12.03125 -7.703125 C 13.976562 -9.472656 16.21875 -10.691406 18.75 -11.359375 C 21.28125 -12.023438 23.789062 -12.023438 26.28125 -11.359375 C 28.769531 -10.691406 30.941406 -9.332031 32.796875 -7.28125 C 34.234375 -5.695312 35.1875 -3.945312 35.65625 -2.03125 C 36.125 -0.113281 36.007812 1.847656 35.3125 3.859375 C 34.625 5.867188 33.273438 7.785156 31.265625 9.609375 L 17.625 -4.90625 C 14.238281 -1.894531 12.125 1.023438 11.28125 3.859375 C 10.445312 6.691406 11.109375 9.296875 13.265625 11.671875 C 14.421875 12.953125 15.945312 13.960938 17.84375 14.703125 C 19.75 15.453125 21.515625 15.742188 23.140625 15.578125 L 23.234375 17.34375 C 20.648438 17.757812 18.195312 17.476562 15.875 16.5 C 13.5625 15.519531 11.671875 14.21875 10.203125 12.59375 Z M 29.1875 4.28125 C 30.863281 2.757812 31.957031 1.082031 32.46875 -0.75 C 32.988281 -2.59375 32.566406 -4.269531 31.203125 -5.78125 C 28.054688 -9.25 24.15625 -9.453125 19.5 -6.390625 Z M 29.1875 4.28125 "/></g></g></g><g fill="#ffffff" fill-opacity="1"><g transform="translate(296.204024, 101.410487)"><g/></g></g><g fill="#ffffff" fill-opacity="1"><g transform="translate(303.57373, 112.152433)"><g/></g></g><g fill="#ffffff" fill-opacity="1"><g transform="translate(309.914985, 123.531844)"><g/></g></g><g fill="#ffffff" fill-opacity="1"><g transform="translate(315.172982, 135.450539)"><g/></g></g><g fill="#ffffff" fill-opacity="1"><g transform="translate(319.302423, 147.805691)"><g/></g></g><g fill="#ffffff" fill-opacity="1"><g transform="translate(322.267674, 160.490685)"><g/></g></g><g fill="#ffffff" fill-opacity="1"><g transform="translate(324.023698, 173.457092)"><g><path d="M -0.625 6.9375 C -0.664062 6.03125 -0.351562 5.242188 0.3125 4.578125 C 0.988281 3.910156 1.835938 3.554688 2.859375 3.515625 C 3.878906 3.472656 4.757812 3.765625 5.5 4.390625 C 6.238281 5.023438 6.628906 5.796875 6.671875 6.703125 C 6.710938 7.648438 6.382812 8.441406 5.6875 9.078125 C 5 9.722656 4.144531 10.066406 3.125 10.109375 C 2.101562 10.148438 1.226562 9.859375 0.5 9.234375 C -0.21875 8.609375 -0.59375 7.84375 -0.625 6.9375 Z M -0.625 6.9375 "/></g></g></g><g fill="#ffffff" fill-opacity="1"><g transform="translate(324.613242, 185.568232)"><g/></g></g><g fill="#ffffff" fill-opacity="1"><g transform="translate(324.051752, 198.583098)"><g/></g></g><g fill="#ffffff" fill-opacity="1"><g transform="translate(322.285092, 211.489711)"><g/></g></g><g fill="#ffffff" fill-opacity="1"><g transform="translate(319.328516, 224.176753)"><g/></g></g><g fill="#ffffff" fill-opacity="1"><g transform="translate(315.207524, 236.534732)"><g/></g></g><g fill="#ffffff" fill-opacity="1"><g transform="translate(309.957669, 248.456999)"><g/></g></g><g fill="#ffffff" fill-opacity="1"><g transform="translate(303.624223, 259.840742)"><g/></g></g><g fill="#ffffff" fill-opacity="1"><g transform="translate(296.261857, 270.587729)"><g/></g></g><g fill="#ffffff" fill-opacity="1"><g transform="translate(287.934084, 280.605222)"><g/></g></g><g fill="#ffffff" fill-opacity="1"><g transform="translate(278.712784, 289.8068)"><g/></g></g><g fill="#ffffff" fill-opacity="1"><g transform="translate(270.191717, 298.114847)"><g><path d="M 1.234375 1.4375 C 0.410156 1.914062 -0.128906 2.484375 -0.390625 3.140625 C -0.660156 3.796875 -0.773438 4.515625 -0.734375 5.296875 C -0.691406 6.085938 -0.53125 7.210938 -0.25 8.671875 L 0.046875 10.3125 L 5.96875 43.609375 L 4.796875 44.296875 L -22.328125 22.828125 C -23.203125 22.148438 -24.066406 21.375 -24.921875 20.5 C -25.785156 19.625 -26.382812 18.851562 -26.71875 18.1875 L -29.9375 20.3125 L -31.1875 18.171875 L -19.984375 11.65625 L -19.046875 13.265625 C -20.953125 14.421875 -21.457031 15.765625 -20.5625 17.296875 C -20.207031 17.921875 -19.597656 18.585938 -18.734375 19.296875 L -14.359375 22.90625 L -1.8125 15.203125 C -2.101562 13.585938 -2.546875 11.507812 -3.140625 8.96875 C -3.453125 7.707031 -3.703125 6.347656 -3.890625 4.890625 L -7.59375 7.296875 L -8.84375 5.15625 L 0.296875 -0.171875 Z M -12.609375 24.3125 L -3.703125 31.609375 L 2 36.359375 L 2.09375 36.3125 L 0.9375 29.578125 L -0.765625 20.609375 L -1.328125 17.734375 Z M -12.609375 24.3125 "/></g></g></g><g fill="#ffffff" fill-opacity="1"><g transform="translate(243.326622, 314.134578)"><g><path d="M -15.34375 4.046875 C -13.90625 3.578125 -12.40625 3.363281 -10.84375 3.40625 C -9.289062 3.445312 -7.800781 3.894531 -6.375 4.75 L -5.875 1.90625 L -3.984375 1.296875 L 6.84375 34.953125 C 7.28125 36.316406 7.601562 37.5 7.8125 38.5 L 11.5625 37.046875 L 12.296875 39.3125 C 10.148438 40.007812 8.660156 40.628906 7.828125 41.171875 C 6.992188 41.722656 6.398438 42.316406 6.046875 42.953125 L 4.484375 43.453125 L -0.71875 27.421875 C -1.394531 28.753906 -2.332031 29.921875 -3.53125 30.921875 C -4.738281 31.921875 -6.160156 32.6875 -7.796875 33.21875 C -10.097656 33.96875 -12.363281 34.09375 -14.59375 33.59375 C -16.832031 33.09375 -18.816406 31.972656 -20.546875 30.234375 C -22.273438 28.492188 -23.582031 26.257812 -24.46875 23.53125 C -25.4375 20.550781 -25.644531 17.722656 -25.09375 15.046875 C -24.539062 12.378906 -23.382812 10.078125 -21.625 8.140625 C -19.875 6.203125 -17.78125 4.835938 -15.34375 4.046875 Z M -14.625 6.265625 C -17.21875 7.097656 -18.929688 8.804688 -19.765625 11.390625 C -20.597656 13.984375 -20.460938 16.984375 -19.359375 20.390625 C -18.128906 24.148438 -16.453125 26.925781 -14.328125 28.71875 C -12.203125 30.507812 -9.78125 30.960938 -7.0625 30.078125 C -5.875 29.691406 -4.785156 29.03125 -3.796875 28.09375 C -2.816406 27.164062 -2.066406 26.097656 -1.546875 24.890625 L -5.96875 11.265625 C -7.507812 6.546875 -10.394531 4.878906 -14.625 6.265625 Z M -14.625 6.265625 "/></g></g></g><g fill="#ffffff" fill-opacity="1"><g transform="translate(215.94011, 323.479746)"><g><path d="M -16.515625 0.875 C -13.921875 0.59375 -11.484375 0.941406 -9.203125 1.921875 C -6.921875 2.910156 -5.03125 4.425781 -3.53125 6.46875 C -2.039062 8.507812 -1.144531 10.898438 -0.84375 13.640625 C -0.519531 16.554688 -0.847656 19.273438 -1.828125 21.796875 C -2.816406 24.316406 -4.3125 26.375 -6.3125 27.96875 C -8.320312 29.570312 -10.640625 30.515625 -13.265625 30.796875 C -15.847656 31.078125 -18.296875 30.707031 -20.609375 29.6875 C -22.921875 28.664062 -24.820312 27.140625 -26.3125 25.109375 C -27.8125 23.078125 -28.707031 20.726562 -29 18.0625 C -29.300781 15.21875 -28.953125 12.523438 -27.953125 9.984375 C -26.960938 7.441406 -25.460938 5.359375 -23.453125 3.734375 C -21.453125 2.117188 -19.140625 1.164062 -16.515625 0.875 Z M -16.734375 3.171875 C -19.472656 3.472656 -21.363281 4.816406 -22.40625 7.203125 C -23.457031 9.597656 -23.800781 12.46875 -23.4375 15.8125 C -23.019531 19.59375 -21.960938 22.753906 -20.265625 25.296875 C -18.566406 27.847656 -16.3125 28.972656 -13.5 28.671875 C -10.71875 28.367188 -8.75 26.992188 -7.59375 24.546875 C -6.445312 22.109375 -6.054688 19.222656 -6.421875 15.890625 C -6.679688 13.492188 -7.25 11.289062 -8.125 9.28125 C -9.007812 7.269531 -10.1875 5.695312 -11.65625 4.5625 C -13.132812 3.425781 -14.828125 2.960938 -16.734375 3.171875 Z M -16.734375 3.171875 "/></g></g></g><g fill="#ffffff" fill-opacity="1"><g transform="translate(187.101577, 327.073565)"><g><path d="M -14.25 -2.359375 C -11.070312 -2.035156 -8.832031 -0.878906 -7.53125 1.109375 C -6.238281 3.097656 -5.816406 6.34375 -6.265625 10.84375 L -7.28125 20.875 C -7.4375 22.445312 -7.632812 23.65625 -7.875 24.5 L -3.984375 24.734375 L -4.21875 27.046875 L -5.953125 26.859375 C -7.421875 26.710938 -8.539062 26.734375 -9.3125 26.921875 C -10.09375 27.117188 -10.769531 27.429688 -11.34375 27.859375 L -12.984375 27.703125 L -11.25 10.515625 C -10.914062 7.222656 -11.128906 4.757812 -11.890625 3.125 C -12.660156 1.488281 -14.113281 0.5625 -16.25 0.34375 C -17.632812 0.207031 -19.035156 0.484375 -20.453125 1.171875 C -21.867188 1.867188 -23.050781 2.796875 -24 3.953125 L -25.453125 18.40625 C -25.628906 20.164062 -25.867188 21.582031 -26.171875 22.65625 L -22.109375 22.890625 L -22.34375 25.203125 L -24.078125 25.03125 C -25.546875 24.882812 -26.664062 24.90625 -27.4375 25.09375 C -28.21875 25.28125 -28.894531 25.59375 -29.46875 26.03125 L -31.109375 25.875 L -28.90625 4.59375 C -28.6875 2.414062 -28.429688 0.660156 -28.140625 -0.671875 L -32.21875 -0.875 L -31.984375 -3.234375 L -23.921875 -2.421875 C -23.847656 -1.242188 -23.832031 -0.101562 -23.875 1 C -22.507812 -0.101562 -20.957031 -0.976562 -19.21875 -1.625 C -17.488281 -2.269531 -15.832031 -2.515625 -14.25 -2.359375 Z M -14.25 -2.359375 "/></g></g></g><g fill="#ffffff" fill-opacity="1"><g transform="translate(156.952451, 323.815924)"><g><path d="M -12.390625 -4.4375 C -7.410156 -3.03125 -5.882812 1.003906 -7.8125 7.671875 L -12.359375 23.4375 L -8.140625 24.5625 L -8.8125 26.90625 C -10.570312 26.445312 -12.273438 26.820312 -13.921875 28.03125 C -15.566406 29.238281 -16.953125 30.734375 -18.078125 32.515625 L -19.953125 31.984375 L -17.8125 24.375 L -26.953125 21.8125 L -26.34375 19.6875 L -17.171875 22.140625 C -15.566406 16.597656 -14.453125 12.757812 -13.828125 10.625 C -13.210938 8.5 -12.867188 7.300781 -12.796875 7.03125 C -12.066406 4.457031 -11.832031 2.453125 -12.09375 1.015625 C -12.351562 -0.410156 -13.25 -1.335938 -14.78125 -1.765625 C -15.726562 -2.035156 -16.742188 -2.007812 -17.828125 -1.6875 C -18.921875 -1.363281 -19.957031 -0.785156 -20.9375 0.046875 L -22.078125 -1.578125 C -20.066406 -3.285156 -18.273438 -4.28125 -16.703125 -4.5625 C -15.128906 -4.84375 -13.691406 -4.800781 -12.390625 -4.4375 Z M -12.390625 -4.4375 "/></g></g></g><g fill="#ffffff" fill-opacity="1"><g transform="translate(138.101669, 318.433524)"><g/></g></g><g fill="#ffffff" fill-opacity="1"><g transform="translate(126.016796, 313.569634)"><g/></g></g><g fill="#ffffff" fill-opacity="1"><g transform="translate(114.435339, 307.605364)"><g/></g></g><g fill="#ffffff" fill-opacity="1"><g transform="translate(103.910686, 303.427481)"><g><path d="M -2.96875 -0.53125 C -3.75 -1.300781 -4.492188 -1.660156 -5.203125 -1.609375 C -5.921875 -1.554688 -6.613281 -1.257812 -7.28125 -0.71875 C -7.945312 -0.175781 -8.914062 0.734375 -10.1875 2.015625 L -19.25 11.203125 C -20.363281 12.328125 -21.273438 13.144531 -21.984375 13.65625 L -18.984375 16.328125 L -20.640625 18.015625 C -22.234375 16.441406 -23.410156 15.445312 -24.171875 15.03125 C -24.929688 14.625 -25.703125 14.414062 -26.484375 14.40625 L -27.65625 13.25 C -27.3125 12.789062 -26.660156 12.023438 -25.703125 10.953125 C -27.242188 10.859375 -28.75 10.503906 -30.21875 9.890625 C -31.6875 9.285156 -32.929688 8.484375 -33.953125 7.484375 C -35.273438 6.179688 -36.164062 4.835938 -36.625 3.453125 C -37.082031 2.066406 -37.144531 0.703125 -36.8125 -0.640625 C -38.550781 -0.835938 -40.265625 -1.269531 -41.953125 -1.9375 C -43.648438 -2.601562 -45.050781 -3.484375 -46.15625 -4.578125 C -48.507812 -6.898438 -49.519531 -9.316406 -49.1875 -11.828125 C -48.863281 -14.347656 -47.117188 -17.144531 -43.953125 -20.21875 L -36.53125 -27.671875 C -35.332031 -28.878906 -34.378906 -29.738281 -33.671875 -30.25 L -36.3125 -32.640625 L -34.6875 -34.28125 L -26.484375 -26.171875 L -27.6875 -24.953125 C -28.46875 -25.722656 -29.210938 -26.078125 -29.921875 -26.015625 C -30.640625 -25.960938 -31.328125 -25.664062 -31.984375 -25.125 C -32.648438 -24.59375 -33.617188 -23.6875 -34.890625 -22.40625 L -40.453125 -16.765625 C -42.734375 -14.453125 -44.078125 -12.367188 -44.484375 -10.515625 C -44.898438 -8.660156 -44.328125 -6.960938 -42.765625 -5.421875 C -41.929688 -4.597656 -40.910156 -3.945312 -39.703125 -3.46875 C -38.503906 -3 -37.289062 -2.742188 -36.0625 -2.703125 C -35.507812 -3.796875 -34.675781 -4.910156 -33.5625 -6.046875 L -24.140625 -15.421875 C -22.941406 -16.628906 -21.988281 -17.488281 -21.28125 -18 L -23.921875 -20.390625 L -22.296875 -22.03125 L -14.078125 -13.921875 L -15.28125 -12.703125 C -16.0625 -13.460938 -16.8125 -13.816406 -17.53125 -13.765625 C -18.25 -13.710938 -18.914062 -13.425781 -19.53125 -12.90625 C -20.15625 -12.382812 -21.144531 -11.46875 -22.5 -10.15625 L -28.109375 -4.5625 C -30.429688 -2.25 -31.816406 -0.171875 -32.265625 1.671875 C -32.722656 3.515625 -32.1875 5.191406 -30.65625 6.703125 C -29.820312 7.523438 -28.820312 8.164062 -27.65625 8.625 C -26.5 9.09375 -25.328125 9.316406 -24.140625 9.296875 L -22.046875 7.09375 L -11.828125 -3.25 C -10.628906 -4.457031 -9.675781 -5.316406 -8.96875 -5.828125 L -11.609375 -8.21875 L -9.984375 -9.859375 L -1.765625 -1.75 Z M -2.96875 -0.53125 "/></g></g></g><g fill="#ffffff" fill-opacity="1"><g transform="translate(71.927044, 270.929256)"><g><path d="M -7.515625 -14.375 C -6.179688 -12.132812 -5.503906 -9.800781 -5.484375 -7.375 C -5.460938 -4.945312 -6.125 -2.628906 -7.46875 -0.421875 C -8.8125 1.773438 -10.765625 3.640625 -13.328125 5.171875 C -15.585938 6.515625 -18.019531 7.257812 -20.625 7.40625 C -23.238281 7.5625 -25.695312 7.066406 -28 5.921875 C -30.3125 4.785156 -32.171875 3.03125 -33.578125 0.65625 C -34.679688 -1.1875 -35.269531 -3.09375 -35.34375 -5.0625 C -35.425781 -7.039062 -34.929688 -8.941406 -33.859375 -10.765625 C -32.785156 -12.597656 -31.078125 -14.210938 -28.734375 -15.609375 L -18.234375 1.328125 C -14.335938 -0.953125 -11.691406 -3.394531 -10.296875 -6 C -8.910156 -8.613281 -9.039062 -11.300781 -10.6875 -14.0625 C -11.570312 -15.539062 -12.875 -16.832031 -14.59375 -17.9375 C -16.3125 -19.050781 -17.984375 -19.6875 -19.609375 -19.84375 L -19.34375 -21.59375 C -16.726562 -21.488281 -14.378906 -20.726562 -12.296875 -19.3125 C -10.222656 -17.894531 -8.628906 -16.25 -7.515625 -14.375 Z M -27.765625 -9.984375 C -29.703125 -8.828125 -31.101562 -7.398438 -31.96875 -5.703125 C -32.84375 -4.003906 -32.757812 -2.273438 -31.71875 -0.515625 C -29.320312 3.492188 -25.539062 4.46875 -20.375 2.40625 Z M -27.765625 -9.984375 "/></g></g></g><g fill="#ffffff" fill-opacity="1"><g transform="translate(57.991241, 246.851772)"><g/></g></g><g fill="#ffffff" fill-opacity="1"><g transform="translate(52.893714, 234.863581)"><g/></g></g><g fill="#ffffff" fill-opacity="1"><g transform="translate(48.930491, 222.454107)"><g/></g></g><g fill="#ffffff" fill-opacity="1"><g transform="translate(46.135795, 209.730426)"><g/></g></g><g fill="#ffffff" fill-opacity="1"><g transform="translate(44.533731, 196.802345)"><g/></g></g><g fill="#ffffff" fill-opacity="1"><g transform="translate(44.138119, 183.7814)"><g/></g></g><g fill="#ffffff" fill-opacity="1"><g transform="translate(44.983151, 170.724544)"><g><path d="M 1.984375 -6.671875 C 1.835938 -5.785156 1.367188 -5.078125 0.578125 -4.546875 C -0.203125 -4.023438 -1.097656 -3.847656 -2.109375 -4.015625 C -3.117188 -4.171875 -3.921875 -4.628906 -4.515625 -5.390625 C -5.117188 -6.148438 -5.351562 -6.976562 -5.21875 -7.875 C -5.0625 -8.8125 -4.582031 -9.53125 -3.78125 -10.03125 C -2.976562 -10.53125 -2.070312 -10.703125 -1.0625 -10.546875 C -0.0507812 -10.378906 0.742188 -9.914062 1.328125 -9.15625 C 1.910156 -8.394531 2.128906 -7.566406 1.984375 -6.671875 Z M 1.984375 -6.671875 "/></g></g></g></svg>