<svg xmlns="http://www.w3.org/2000/svg" xmlns:xlink="http://www.w3.org/1999/xlink" width="500" zoomAndPan="magnify" viewBox="0 0 375 374.999991" height="500" preserveAspectRatio="xMidYMid meet" version="1.0"><defs><clipPath id="7fca72c7ee"><path d="M 0 109.453125 L 375 109.453125 L 375 265.453125 L 0 265.453125 Z M 0 109.453125 " clip-rule="nonzero"/></clipPath></defs><g clip-path="url(#7fca72c7ee)"><path fill="#d50000" d="M 0.1875 109.453125 L 374.8125 109.453125 L 374.8125 242.054688 L 187.5 242.054688 L 187.5 265.453125 L 101.648438 265.453125 L 101.648438 242.054688 L 0.1875 242.054688 Z M 0.1875 109.453125 " fill-opacity="1" fill-rule="nonzero"/></g><path fill="#ffffff" d="M 23.601562 218.652344 L 62.625 218.652344 L 62.625 156.253906 L 86.039062 156.253906 L 86.039062 218.652344 L 101.648438 218.652344 L 101.648438 132.851562 L 23.601562 132.851562 Z M 125.0625 132.851562 L 125.0625 242.054688 L 164.085938 242.054688 L 164.085938 218.652344 L 203.109375 218.652344 L 203.109375 132.851562 Z M 187.5 195.253906 L 164.085938 195.253906 L 164.085938 156.253906 L 187.5 156.253906 Z M 226.523438 132.851562 L 226.523438 218.652344 L 265.546875 218.652344 L 265.546875 156.253906 L 288.960938 156.253906 L 288.960938 218.652344 L 312.375 218.652344 L 312.375 156.253906 L 335.789062 156.253906 L 335.789062 218.652344 L 351.398438 218.652344 L 351.398438 132.851562 Z M 226.523438 132.851562 " fill-opacity="1" fill-rule="nonzero"/></svg>