<svg xmlns="http://www.w3.org/2000/svg" xmlns:xlink="http://www.w3.org/1999/xlink" width="500" zoomAndPan="magnify" viewBox="0 0 375 374.999991" height="500" preserveAspectRatio="xMidYMid meet" version="1.0"><path fill="#00d8ff" d="M 308.191406 128.195312 C 304.203125 126.824219 300.179688 125.554688 296.125 124.386719 C 296.804688 121.605469 297.433594 118.851562 297.988281 116.152344 C 307.125 71.777344 301.152344 36.03125 280.757812 24.257812 C 261.203125 12.976562 229.222656 24.742188 196.925781 52.871094 C 193.742188 55.648438 190.628906 58.507812 187.589844 61.441406 C 185.558594 59.492188 183.488281 57.578125 181.382812 55.703125 C 147.53125 25.625 113.601562 12.945312 93.230469 24.75 C 73.695312 36.070312 67.910156 69.675781 76.132812 111.726562 C 76.949219 115.894531 77.875 120.035156 78.902344 124.15625 C 74.097656 125.519531 69.464844 126.972656 65.03125 128.523438 C 25.34375 142.371094 0 164.070312 0 186.582031 C 0 209.828125 27.207031 233.148438 68.542969 247.285156 C 71.894531 248.429688 75.273438 249.488281 78.675781 250.460938 C 77.570312 254.894531 76.589844 259.359375 75.734375 263.851562 C 67.894531 305.175781 74.015625 337.984375 93.5 349.234375 C 113.625 360.847656 147.398438 348.910156 180.289062 320.136719 C 182.953125 317.796875 185.5625 315.394531 188.109375 312.921875 C 191.402344 316.101562 194.78125 319.1875 198.242188 322.175781 C 230.101562 349.609375 261.5625 360.6875 281.027344 349.410156 C 301.132812 337.761719 307.667969 302.515625 299.183594 259.628906 C 298.515625 256.269531 297.765625 252.925781 296.9375 249.605469 C 299.308594 248.902344 301.636719 248.175781 303.90625 247.421875 C 346.878906 233.175781 374.835938 210.140625 374.835938 186.582031 C 374.835938 163.988281 348.675781 142.140625 308.191406 128.195312 Z M 298.871094 232.210938 C 296.820312 232.890625 294.71875 233.546875 292.574219 234.183594 C 287.832031 219.152344 281.429688 203.171875 273.59375 186.65625 C 281.070312 170.539062 287.226562 154.761719 291.835938 139.828125 C 295.671875 140.9375 299.394531 142.109375 302.980469 143.34375 C 337.667969 155.296875 358.824219 172.964844 358.824219 186.582031 C 358.824219 201.082031 335.972656 219.90625 298.871094 232.210938 Z M 283.476562 262.742188 C 287.226562 281.703125 287.761719 298.847656 285.277344 312.253906 C 283.046875 324.296875 278.558594 332.328125 273.003906 335.542969 C 261.191406 342.386719 235.929688 333.492188 208.6875 310.027344 C 205.464844 307.25 202.324219 304.378906 199.261719 301.425781 C 209.824219 289.863281 220.378906 276.425781 230.683594 261.5 C 248.800781 259.890625 265.921875 257.257812 281.445312 253.667969 C 282.195312 256.675781 282.871094 259.703125 283.476562 262.742188 Z M 127.789062 334.359375 C 116.25 338.4375 107.058594 338.554688 101.5 335.347656 C 89.675781 328.523438 84.761719 302.179688 91.464844 266.839844 C 92.261719 262.664062 93.175781 258.511719 94.203125 254.386719 C 109.554688 257.785156 126.550781 260.230469 144.714844 261.703125 C 155.085938 276.308594 165.949219 289.734375 176.890625 301.488281 C 174.566406 303.742188 172.183594 305.9375 169.75 308.070312 C 155.207031 320.792969 140.632812 329.820312 127.789062 334.359375 Z M 73.722656 232.125 C 55.445312 225.871094 40.351562 217.746094 30.003906 208.878906 C 20.707031 200.910156 16.015625 193 16.015625 186.582031 C 16.015625 172.921875 36.363281 155.496094 70.300781 143.65625 C 74.417969 142.21875 78.730469 140.863281 83.203125 139.589844 C 87.894531 154.859375 94.046875 170.824219 101.472656 186.96875 C 93.949219 203.351562 87.710938 219.574219 82.972656 235.023438 C 79.867188 234.132812 76.78125 233.164062 73.722656 232.125 Z M 91.847656 108.648438 C 84.800781 72.621094 89.480469 45.441406 101.253906 38.621094 C 113.792969 31.355469 141.523438 41.714844 170.75 67.6875 C 172.65625 69.382812 174.53125 71.117188 176.375 72.882812 C 165.484375 84.585938 154.722656 97.910156 144.441406 112.429688 C 126.8125 114.0625 109.9375 116.691406 94.421875 120.207031 C 93.46875 116.378906 92.609375 112.523438 91.847656 108.652344 Z M 253.535156 148.609375 C 249.871094 142.273438 246.070312 136.019531 242.136719 129.847656 C 254.097656 131.359375 265.554688 133.371094 276.316406 135.824219 C 273.085938 146.1875 269.058594 157.023438 264.320312 168.128906 C 260.855469 161.550781 257.257812 155.042969 253.535156 148.609375 Z M 187.597656 84.335938 C 194.984375 92.34375 202.382812 101.28125 209.65625 110.984375 C 194.898438 110.285156 180.113281 110.285156 165.355469 110.976562 C 172.636719 101.363281 180.097656 92.433594 187.597656 84.335938 Z M 121.238281 148.71875 C 117.5625 155.101562 114.035156 161.570312 110.65625 168.117188 C 105.996094 157.046875 102.003906 146.164062 98.746094 135.65625 C 109.441406 133.261719 120.847656 131.304688 132.730469 129.816406 C 128.753906 136.027344 124.921875 142.328125 121.238281 148.714844 Z M 133.070312 244.484375 C 120.792969 243.113281 109.21875 241.253906 98.527344 238.925781 C 101.835938 228.226562 105.914062 217.113281 110.675781 205.808594 C 114.066406 212.359375 117.609375 218.832031 121.300781 225.21875 C 125.101562 231.78125 129.035156 238.214844 133.070312 244.484375 Z M 188.039062 289.953125 C 180.449219 281.761719 172.878906 272.695312 165.488281 262.941406 C 172.664062 263.226562 179.980469 263.367188 187.417969 263.367188 C 195.058594 263.367188 202.609375 263.195312 210.046875 262.867188 C 202.746094 272.792969 195.375 281.871094 188.039062 289.953125 Z M 264.46875 205.230469 C 269.480469 216.660156 273.703125 227.714844 277.054688 238.230469 C 266.1875 240.714844 254.453125 242.710938 242.089844 244.195312 C 246.050781 237.910156 249.890625 231.546875 253.597656 225.109375 C 257.367188 218.5625 260.992188 211.9375 264.46875 205.230469 Z M 239.726562 217.101562 C 234.050781 226.972656 228.050781 236.65625 221.746094 246.136719 C 210.320312 246.949219 198.871094 247.351562 187.417969 247.34375 C 175.753906 247.34375 164.40625 246.980469 153.480469 246.273438 C 147.007812 236.8125 140.898438 227.109375 135.160156 217.1875 C 129.449219 207.320312 124.113281 197.238281 119.167969 186.960938 C 124.101562 176.6875 129.421875 166.597656 135.113281 156.722656 L 135.109375 156.722656 C 140.800781 146.84375 146.863281 137.183594 153.285156 127.765625 C 164.433594 126.921875 175.863281 126.480469 187.417969 126.480469 C 199.023438 126.480469 210.46875 126.925781 221.613281 127.777344 C 227.972656 137.179688 233.996094 146.808594 239.675781 156.636719 C 245.386719 166.492188 250.773438 176.53125 255.832031 186.734375 C 250.828125 197.046875 245.453125 207.175781 239.726562 217.101562 Z M 272.761719 38.140625 C 285.3125 45.386719 290.191406 74.601562 282.308594 112.914062 C 281.804688 115.359375 281.238281 117.847656 280.621094 120.375 C 265.070312 116.78125 248.183594 114.109375 230.503906 112.449219 C 220.203125 97.769531 209.53125 84.425781 198.816406 72.871094 C 201.625 70.164062 204.5 67.523438 207.4375 64.960938 C 235.113281 40.859375 260.976562 31.339844 272.761719 38.140625 Z M 187.417969 153.082031 C 205.902344 153.082031 220.890625 168.078125 220.890625 186.582031 C 220.890625 205.082031 205.902344 220.078125 187.417969 220.078125 C 168.933594 220.078125 153.945312 205.082031 153.945312 186.582031 C 153.945312 168.078125 168.933594 153.082031 187.417969 153.082031 Z M 187.417969 153.082031 " fill-opacity="1" fill-rule="nonzero"/></svg>